<svg xmlns="http://www.w3.org/2000/svg" width="24" height="24" viewBox="0 0 24 24"><path fill="#F3B31F" d="M12 2a10 10 0 1 0 0 20 10 10 0 0 0 0-20zm6.92 6h-3.03a15.65 15.65 0 0 0-1.38-3.56A8.06 8.06 0 0 1 18.92 8zM12 4c.83 1.2 1.55 2.55 1.96 4h-3.92C10.45 6.55 11.17 5.2 12 4zM4.26 14a7.8 7.8 0 0 1 0-4h3.4a16.4 16.4 0 0 0 0 4h-3.4zm.82 2h3.03c.28 1.27.75 2.48 1.38 3.56A8.06 8.06 0 0 1 5.08 16zM8.11 8H5.08a8.06 8.06 0 0 1 4.41-3.56A15.65 15.65 0 0 0 8.11 8zM12 20c-.83-1.2-1.55-2.55-1.96-4h3.92c-.41 1.45-1.13 2.8-1.96 4zm2.35-6h-4.7a14.3 14.3 0 0 1 0-4h4.7a14.3 14.3 0 0 1 0 4zm.16 5.56c.63-1.08 1.1-2.29 1.38-3.56h3.03a8.06 8.06 0 0 1-4.41 3.56zM16.34 14a16.4 16.4 0 0 0 0-4h3.4a7.8 7.8 0 0 1 0 4h-3.4z"/></svg>