<svg xmlns="http://www.w3.org/2000/svg" viewBox="0 0 610 150" role="img" aria-labelledby="title desc">
<title id="title">Solanis Transport</title>
<desc id="desc">Gold sunrise over a stylized silver road beside the Solanis Transport name.</desc>
<defs>
  <linearGradient id="road" x1="0" x2="1">
    <stop offset="0" stop-color="#ffffff"/>
    <stop offset="1" stop-color="#9aa3ad"/>
  </linearGradient>
</defs>
<g transform="translate(0 0)">
  <g transform="translate(8 4)">
    <circle cx="78" cy="56" r="24" fill="#f6b51f"/>
    <path d="M26 59h105" stroke="#f6b51f" stroke-width="5" stroke-linecap="round"/>
    <g stroke="#f6b51f" stroke-width="4" stroke-linecap="round">
      <path d="M78 5v23"/><path d="M45 16l12 20"/><path d="M111 16L99 36"/>
      <path d="M20 36l22 10"/><path d="M136 36l-22 10"/>
      <path d="M29 18l18 17"/><path d="M127 18l-18 17"/>
    </g>
    <path d="M12 109C34 78 56 67 84 65c30-2 51 12 69 44h-26c-17-22-31-29-47-29-16 0-29 8-43 29z" fill="url(#road)"/>
    <path d="M36 109c23-18 35-28 50-29 10 0 20 5 31 14-12 1-21 5-31 15z" fill="#0a1526"/>
    <path d="M78 109c17-13 27-19 38-20 7 0 13 3 21 9-8 1-15 4-21 11z" fill="#0a1526"/>
  </g>
  <text x="170" y="73" fill="#ffffff" font-family="Arial, Helvetica, sans-serif" font-size="68" font-weight="700" letter-spacing="1">SOLANIS</text>
  <text x="174" y="124" fill="#f6b51f" font-family="Arial, Helvetica, sans-serif" font-size="30" font-weight="600" letter-spacing="15">TRANSPORT</text>
</g>
</svg>